<svg aria-hidden="true" style="position: absolute; width: 0; height: 0; overflow: hidden;" version="1.1" xmlns="http://www.w3.org/2000/svg" xmlns:xlink="http://www.w3.org/1999/xlink">
<defs>
<symbol id="icon-key" viewBox="0 0 30 32">
<path d="M14.857 9.143c0-1.893-1.536-3.429-3.429-3.429s-3.429 1.536-3.429 3.429c0 0.518 0.125 1.018 0.339 1.482-0.464-0.214-0.964-0.339-1.482-0.339-1.893 0-3.429 1.536-3.429 3.429s1.536 3.429 3.429 3.429 3.429-1.536 3.429-3.429c0-0.518-0.125-1.018-0.339-1.482 0.464 0.214 0.964 0.339 1.482 0.339 1.893 0 3.429-1.536 3.429-3.429zM30.054 21.714c0 0.411-1.643 2.054-2.054 2.054-0.464 0-1.911-1.679-2.286-2.054l-1.714 1.714 3.929 3.929c0.321 0.321 0.5 0.768 0.5 1.214 0 1-1.143 2.143-2.143 2.143-0.446 0-0.893-0.179-1.214-0.5l-11.982-11.982c-1.875 1.393-4.161 2.339-6.518 2.339-3.893 0-6.571-2.696-6.571-6.571 0-5.857 5.857-11.714 11.714-11.714 3.875 0 6.571 2.679 6.571 6.571 0 2.357-0.946 4.643-2.339 6.518l6.339 6.339 1.714-1.714c-0.375-0.375-2.054-1.821-2.054-2.286 0-0.411 1.643-2.054 2.054-2.054 0.143 0 0.304 0.071 0.411 0.179 0.661 0.661 5.643 5.357 5.643 5.875z"></path>
</symbol>
<symbol id="icon-help" viewBox="0 0 32 32">
<path d="M22.544 3.573c-1.824-1.315-4.115-1.973-6.874-1.973-2.098 0-3.869 0.462-5.307 1.389-2.283 1.45-3.496 3.912-3.643 7.384h5.291c0-1.013 0.296-1.984 0.885-2.925 0.59-0.938 1.592-1.406 3.005-1.406 1.437 0 2.427 0.381 2.966 1.141 0.542 0.763 0.813 1.606 0.813 2.531 0 0.806-0.403 1.544-0.891 2.213-0.267 0.39-0.619 0.75-1.058 1.078 0 0-2.869 1.84-4.128 3.318-0.73 0.856-0.795 2.141-0.861 3.981-0.003 0.131 0.046 0.403 0.504 0.403 0.459 0 3.706 0 4.114 0 0.41 0 0.494-0.302 0.499-0.438 0.029-0.669 0.102-1.013 0.226-1.4 0.23-0.731 0.861-1.368 1.566-1.918l1.456-1.003c1.315-1.026 2.363-1.866 2.827-2.525 0.79-1.082 1.347-2.416 1.347-4-0.002-2.584-0.914-4.531-2.738-5.85zM15.586 23.878c-1.822-0.056-3.326 1.206-3.384 3.184-0.056 1.974 1.373 3.282 3.197 3.334 1.902 0.056 3.366-1.163 3.426-3.141 0.054-1.978-1.334-3.322-3.238-3.378z"></path>
</symbol>
<symbol id="icon-headphones" viewBox="0 0 32 32">
<path d="M9 18h-2v14h2c0.55 0 1-0.45 1-1v-12c0-0.55-0.45-1-1-1z"></path>
<path d="M23 18c-0.55 0-1 0.45-1 1v12c0 0.55 0.45 1 1 1h2v-14h-2z"></path>
<path d="M32 16c0-8.837-7.163-16-16-16s-16 7.163-16 16c0 1.919 0.338 3.759 0.958 5.464-0.609 1.038-0.958 2.246-0.958 3.536 0 3.526 2.608 6.443 6 6.929v-13.857c-0.997 0.143-1.927 0.495-2.742 1.012-0.168-0.835-0.258-1.699-0.258-2.584 0-7.18 5.82-13 13-13s13 5.82 13 13c0 0.885-0.088 1.749-0.257 2.584-0.816-0.517-1.745-0.87-2.743-1.013v13.858c3.392-0.485 6-3.402 6-6.929 0-1.29-0.349-2.498-0.958-3.536 0.62-1.705 0.958-3.545 0.958-5.465z"></path>
</symbol>
</defs>
</svg>
