<?xml version="1.0" encoding="UTF-8"?>
<svg viewBox="0 0 400 400" xmlns="http://www.w3.org/2000/svg" xmlns:xlink="http://www.w3.org/1999/xlink">
 <defs>
  <filter id="b">
   <feGaussianBlur stdDeviation=".53036"/>
  </filter>
  <filter id="g">
   <feGaussianBlur stdDeviation=".28168"/>
  </filter>
  <linearGradient id="a">
   <stop stop-color="#fff" offset="0"/>
   <stop stop-color="#fff" stop-opacity="0" offset="1"/>
  </linearGradient>
  <linearGradient id="e" x1="275.61" x2="342" y1="300.86" y2="391.45" gradientUnits="userSpaceOnUse">
   <stop stop-color="#112b00" offset="0"/>
   <stop stop-color="#6f0" offset="1"/>
  </linearGradient>
  <linearGradient id="f" x1="241.41" x2="315.47" y1="287.49" y2="367.88" gradientUnits="userSpaceOnUse" xlink:href="#a"/>
  <linearGradient id="d" x1="-544.39" x2="-531.47" y1="79.992" y2="94.98" gradientUnits="userSpaceOnUse" xlink:href="#a"/>
  <radialGradient id="c" cx="312.78" cy="386.57" r="53.036" gradientTransform="matrix(-.59327 -.59327 .71505 -.71505 243.27 849.03)" gradientUnits="userSpaceOnUse">
   <stop stop-color="#fff" stop-opacity=".40816" offset="0"/>
   <stop stop-color="#fff" stop-opacity="0" offset="1"/>
  </radialGradient>
 </defs>
 <g transform="translate(0 -652.36)">
  <g font-family="Eras Bold ITC" font-size="225.16">
   <g transform="matrix(8.7102 0 0 8.7102 4845.8 58.152)">
    <path transform="matrix(.29286 0 0 .29286 -622.59 -10.416)" d="m356.79 346.11c0 29.291-23.745 53.036-53.036 53.036s-53.036-23.745-53.036-53.036 23.745-53.036 53.036-53.036 53.036 23.745 53.036 53.036z" fill="#999"/>
    <path transform="matrix(.28866 0 0 .28866 -621.19 -12.565)" d="m356.79 346.11c0 29.291-23.745 53.036-53.036 53.036s-53.036-23.745-53.036-53.036 23.745-53.036 53.036-53.036 53.036 23.745 53.036 53.036z" fill="url(#f)"/>
    <path transform="matrix(.26278 0 0 .26278 -613.45 -.00529)" d="m356.79 346.11c0 29.291-23.745 53.036-53.036 53.036s-53.036-23.745-53.036-53.036 23.745-53.036 53.036-53.036 53.036 23.745 53.036 53.036z" fill="#ececec" filter="url(#b)"/>
    <path transform="matrix(.2522 0 0 .2522 -610.24 3.6558)" d="m356.79 346.11c0 29.291-23.745 53.036-53.036 53.036s-53.036-23.745-53.036-53.036 23.745-53.036 53.036-53.036 53.036 23.745 53.036 53.036z" fill="#999" filter="url(#b)"/>
    <path transform="matrix(.24242 0 0 .24242 -607.26 7.0411)" d="m356.79 346.11c0 29.291-23.745 53.036-53.036 53.036s-53.036-23.745-53.036-53.036 23.745-53.036 53.036-53.036 53.036 23.745 53.036 53.036z" fill="url(#e)"/>
    <path transform="matrix(.22809 0 0 .22809 -602.53 12.606)" d="m356.79 346.11c0 29.291-23.745 53.036-53.036 53.036s-53.036-23.745-53.036-53.036 23.745-53.036 53.036-53.036 53.036 23.745 53.036 53.036z" fill="url(#c)"/>
    <path d="m-533.93 78.858c-4.01 0.09045-7.8772 2.2134-10.028 5.9386-2.3134 4.0068-2.0197 8.8037 0.34728 12.433 0.25661-7.9811 6.3568-13.992 13.935-13.553 2.4844 0.14411 4.8294 0.96263 6.8763 2.2834-0.97997-2.241-2.6523-4.1973-4.9315-5.5132-1.9513-1.1266-4.0986-1.6362-6.1991-1.5888z" fill="url(#d)" opacity=".31771"/>
    <path d="m-535.80886,84.6684c-.46509,0-.93458.15397-1.29096.45756l-.0848.07224c-.71274.60718-.71273,1.58428 0,2.19146l4.48537,3.82903-4.48537,3.821c-.71274.60718-.71274,1.58429 0,2.19146l.0848.08028c.71275.60716 1.85975.60716 2.57249,0l5.71035-4.86456c.39352-.33523.5687-.78377.52768-1.22015 .00031-.0027-.00029-.0053 0-.008-.00055-.0055.00063-.01059 0-.01605 .041-.43638-.13416-.88492-.52768-1.22015l-5.71035-4.85652c-.35637-.30359-.81645-.45756-1.28153-.45756z" filter="url(#g)"/>
    <path d="m-535.6749,84.9809c-.44289,0-.88998.14662-1.22936.43572l-.0808.0688c-.67873.5782-.67872,1.50869 0,2.08689l4.27135,3.64632-4.27135,3.63868c-.67873.57821-.67873,1.50869 0,2.08689l.0808.07645c.67874.57819 1.77101.57819 2.44974,0l5.43788-4.63244c.37474-.31923.54156-.74637.5025-1.16193 .0003-.0026-.00027-.005 0-.0076-.00052-.0052.0006-.01008 0-.01529 .0391-.41556-.12776-.8427-.5025-1.16193l-5.43788-4.62479c-.33936-.2891-.77749-.43572-1.22038-.43572z" fill="#fff"/>
   </g>
  </g>
 </g>
</svg>
