<svg xmlns="http://www.w3.org/2000/svg" xmlns:xlink="http://www.w3.org/1999/xlink" viewBox="0 0 2400 2400"><defs><clipPath id="a"><rect width="2400" height="2400" fill="none"/></clipPath></defs><g clip-path="url(#a)"><rect y="0.71" width="1199.65" height="2399.29" fill="#002786"/><path d="M.71.71H1199.65V2400H.71ZM0,2400H1200.35V0H0Z"/><rect x="1199.65" width="1200.35" height="2400" fill="#e0162b"/><g clip-path="url(#a)"><path d="M142.17,271.23c90-24,181.13-45.85,274.24-52,45.8,0,91.6-4.95,137-.63,48.83,2.9,99.29,14.82,138.26,45.29C784.21,340,874,419.63,967.81,493.84a184.92,184.92,0,0,0,47,26.36c4.58,1.22,14.16,6.66,15.39-1.49,6.41-19.94-13.45-34.31-21.67-50.35,20.48.32,41.5,2.63,59.91,12.14a666,666,0,0,1,130.22,85.29c26.52,23.15,52.49,47.48,73.28,76.07,69.76,107.44,120.54,225.21,181.09,337.6,10.71,21.12,21.48,42.47,37,60.68,22.58-53.83,44.93-110.11,87.38-152.07a365.14,365.14,0,0,1,105.66-67.61c11.22-5.39,23.44-9.06,33.62-16.58,7.07-9.38,6.77-22.3,13.73-31.73,20.15-26.77,55.46-39.74,70.25-70.91,12.37-25.28-4.57-52.79-21.23-71.59-33.45-37.69-81.15-56.37-122.36-83.36,42.58-30.95,96.76-34.4,147.47-38.93,64.61-3,128.55,11.11,193.12,9.38-7.08-27.82-32.29-47-36.64-75.85,15.21,0,30.82-.5,45.48,4.53,70.39,21.56,142.26,48.8,195.88,100.91,36,33.8,74.31,71.87,82.1,122.62,6.78,32.26-16.85,58.91-32.88,84.33-69.71,104.94-142.52,208.43-224.41,304.09-15.16,18.13-32.06,34.75-45.8,53.83-45.3,60-90.86,121.31-119.4,191.27-7.87,18.49,3.07,37.65,14,52.37,36,51.25,93.15,83.19,129.24,134.4,26.06,35.93,53.86,73.22,62.56,117.54,3.2,37.11,2.7,75.45-9.8,111-8.75,25.15,1.42,52.84-7.92,77.71-13.74,24.38-44,29.54-68.7,37.07,7.79-9.56,19.46-18.13,21.11-30.95-.83-18.81-16.21-33.9-33.71-39.16-13.09,4.54-24.63,19.94-17.49,33.9,1.28,6.37,6.14,21.75-4.95,20.67-45.8-25-58.26-82.66-102.36-109.62-19.23-12.32-48.59-11.64-63.43,7.12-27.2,33.48-29,82.47-10.62,120.44,20.48,39.74,64.53,61.44,83.22,102.49-19.56,8.25-41.5,7.21-60.92,15.58a183.87,183.87,0,0,1,32.84,56.91c26.47-2.45,52.72-11.29,79.55-6.3,32.74,5.62,67.55,29.5,68.7,65.2,1.78,28.78-21.85,49.85-44.59,63.44,1.93-22.38,3.85-47.22-12.18-65.43-10.35,16.59-11.54,36.75-20.33,54.1-9.16-13.59-20-27.19-35.72-34.12-1.56,23-2.06,46.67,6.59,68.51a70,70,0,0,1-55.42-39.33c-9.15-15.63,0-33.44,4.58-48.94-47.71-15.94-68.69-66.65-112.06-88.63,0,16.5.59,33,.82,49.39-28.35-17.17-37.73-50.95-60.16-73.6-4.58-5.21-12.68-3.94-18.87-3.76-30.09,3.08-53.53,24.38-73.73,44.77,52.07,16.9,108.54,22.16,156.63,49.84,19.82,10.92,35.39,32.09,32.61,55.42.27,34.68-27.71,58.91-50.38,81.56,5-29.67,20.79-69.24-8.75-91.35-9.16,21.89-19,44.23-35.54,61.81a412.48,412.48,0,0,0-12.69-53.74c-27.89,17.81-34.07,55.28-20.65,83.92-32.06-.71-60.16-27.74-59.53-59.68-2-27.73,28.94-41.42,33.06-67.33-29.41-11.56-60-19.58-90-29.46a157.8,157.8,0,0,0-67.45,73.82q6.18,12,12,24.06c-36-13.32-62.74-42.19-82.43-73.86-25.15,3.62-51,8.49-76.4,2.54-27.47-6.26-59.54-14.78-74.09-41.33,31.14-7.52,65.48-13,89.44-36,17.4-15,13.73-41.15,6.78-60.41-17.7-44-62.56-68.32-103.51-87.67-56.56-25.48-119.85-43.28-163.72-89.41,16.53.23,33.11.41,49.68,0-41.21-55.78-109-83.74-152-137.71-17.32-23.24-24.37-56.32-53-69.6-65.82-30.26-126.81-72.49-198.12-89.71,37.41-67.24,123.19-94.89,196.52-79.16a389.87,389.87,0,0,1,13-37.44c61.57,13.6,88.06,82.2,147.69,99.42,49.74,13.6,103.09,2.68,148.71-19.26-7.38-10.87-12.74-26.89-27.75-29-164.1-34.53-301-143-407.19-267.35C674.5,1011.2,604.47,902.08,570,780c-7.69-25.65-6.28-52.66-6.41-79.07-54.5-40-104.24-88.36-136.94-147.27-15.75-24.88-8-55.42-17.63-82.1-12.82-38.74-41.44-70.46-75.47-93.12C281,341.34,217.12,325.3,155.29,309.53a162.36,162.36,0,0,1-41.58-18.13c8-8.49,16.28-18.07,28.44-20.16" fill="#fff"/><path d="M365.2,1389.88c17.82,49.84,32.93,101,49.87,151.46,53.79-.28,107.49,0,161.26-1.27-42.82,32.08-87,62.17-130.71,93.3,17.27,50.66,32.79,102,51.89,152C453.36,1754.31,410,1722,366,1690.73c-44,31.7-87.65,63.73-131.71,95.14,18.86-50.21,34.68-101.55,51.7-152.43-43.74-30.86-87.71-61.45-131-93,53.13.71,106.29.55,159.42.82l2.42-1.54c16.45-49.85,32.84-99.74,48.37-149.85" fill="#fff"/><path d="M740.16,1937.21q23.36-75.72,48.77-150.75c15.89,50.61,32.84,100.86,48.83,151.46,53.79.71,107.58-.91,161.37-.71-42.68,31.31-86.34,61-129,92.22l-.82,2.83c16,49.84,33.57,99.19,49.6,149-43.23-31.22-86.7-62.13-129.61-93.84-43.55,31.39-87.05,62.66-130.34,94.61,15.39-51.12,34.35-101.14,49.88-152.21q-65.91-45.3-130.48-92.39c54-.19,107.85,1.36,161.8-.19" fill="#fff"/></g></g></svg>